<?xml version="1.0" standalone="no"?>
<!DOCTYPE svg PUBLIC "-//W3C//DTD SVG 20010904//EN"
 "http://www.w3.org/TR/2001/REC-SVG-20010904/DTD/svg10.dtd">
<svg version="1.0" xmlns="http://www.w3.org/2000/svg"
 width="800.000000pt" height="800.000000pt" viewBox="0 0 800.000000 800.000000"
 preserveAspectRatio="xMidYMid meet">

<g transform="translate(0.000000,800.000000) scale(0.100000,-0.100000)"
fill="#000000" stroke="none">
<path d="M3680 7830 c0 -7 -588 -10 -1745 -10 l-1745 0 0 -1740 c0 -1153 -3
-1740 -10 -1740 -7 0 -10 -617 -10 -1830 l0 -1830 155 0 155 0 0 908 c1 899 1
907 20 872 18 -34 19 -65 20 -792 l0 -758 614 0 613 0 139 -93 c275 -183 518
-305 819 -413 l120 -43 -357 0 -358 -1 0 -85 0 -85 785 0 c517 0 785 -3 785
-10 0 -7 377 -10 1110 -10 l1110 0 0 95 0 95 -357 1 -358 0 120 43 c301 108
544 230 819 413 l139 93 548 0 549 0 0 630 0 630 75 0 74 0 4 153 3 152 2
-152 2 -153 160 0 160 0 0 1085 c0 717 -3 1085 -10 1085 -7 0 -10 257 -10 750
l0 750 -150 0 -149 0 -4 -152 -3 -153 -2 153 -2 152 -75 0 -75 0 0 880 0 880
-1022 1 c-969 1 -1026 2 -1073 19 -49 18 -32 18 1023 19 l1072 1 0 100 0 100
-1840 0 c-1220 0 -1840 -3 -1840 -10z m-935 -210 c-47 -17 -106 -18 -1137 -19
l-1088 -1 0 -1007 c-1 -974 -1 -1009 -20 -1043 -19 -35 -19 -25 -20 1028 l0
1062 1158 -1 c1136 -1 1156 -1 1107 -19z m1495 -5 c266 -12 592 -73 880 -166
826 -267 1543 -839 1993 -1590 119 -200 265 -511 312 -668 l7 -24 -28 20 c-16
11 -787 551 -1714 1200 -927 649 -1694 1186 -1706 1193 -19 12 -151 -85 -1734
-1279 -942 -710 -1715 -1289 -1717 -1287 -3 3 12 56 32 118 325 987 1066 1795
2021 2203 292 125 631 217 955 260 137 19 405 33 514 28 39 -1 122 -5 185 -8z
m3294 -2810 c64 -274 87 -491 87 -800 0 -301 -23 -521 -83 -785 -158 -700
-496 -1305 -1009 -1805 -165 -161 -235 -219 -226 -189 4 10 266 867 582 1904
317 1037 578 1892 581 1900 8 20 25 -37 68 -225z m-6324 -1789 c363 -1056 658
-1922 655 -1924 -13 -14 -294 229 -451 389 -705 723 -1072 1690 -1023 2695 12
259 36 430 96 678 35 149 36 150 49 115 7 -18 310 -898 674 -1953z m1145 1927
c97 -33 175 -143 175 -247 0 -17 -45 -287 -100 -601 -112 -633 -114 -640 -204
-731 -28 -27 -78 -63 -111 -80 l-60 -29 -245 -3 c-237 -3 -245 -2 -257 17 -11
17 10 153 134 856 l147 835 236 0 c194 0 245 -3 285 -17z m1335 -826 c0 -642
-3 -846 -12 -855 -16 -16 -170 -16 -186 0 -8 8 -12 63 -12 180 l0 168 -133 0
-134 0 -60 -177 -60 -178 -83 -3 c-85 -3 -110 6 -110 37 0 15 552 1583 580
1649 9 21 15 22 110 22 l100 0 0 -843z m1350 0 c0 -642 -3 -846 -12 -855 -16
-16 -170 -16 -186 0 -8 8 -12 63 -12 180 l0 168 -133 0 -134 0 -60 -177 -60
-178 -83 -3 c-85 -3 -110 6 -110 37 0 15 552 1583 580 1649 9 21 15 22 110 22
l100 0 0 -843z m1559 829 c40 -21 61 -59 61 -109 0 -38 -31 -233 -61 -384
l-10 -53 -88 0 c-128 0 -126 -4 -90 195 16 88 29 163 29 168 0 4 -69 7 -153 7
l-153 0 -114 -647 c-62 -357 -115 -656 -118 -665 -4 -17 8 -18 152 -18 101 0
156 4 156 10 0 6 18 112 40 235 22 123 40 233 40 245 0 18 -6 20 -70 20 -89 0
-96 10 -79 116 l12 74 177 0 c156 0 179 -2 193 -17 14 -17 10 -49 -48 -377
-76 -428 -69 -397 -102 -437 -47 -56 -66 -59 -348 -59 -281 0 -301 3 -330 60
-8 16 -15 44 -15 62 0 57 249 1451 266 1490 19 42 36 60 79 82 43 22 531 24
574 2z m-3849 -1461 c13 -16 11 -44 -11 -172 l-11 -63 -99 0 c-126 0 -127 1
-103 146 l17 104 97 0 c75 0 100 -4 110 -15z m1350 0 c13 -16 11 -44 -11 -172
l-11 -63 -99 0 c-126 0 -127 1 -103 146 l17 104 97 0 c75 0 100 -4 110 -15z
m1350 0 c13 -16 11 -44 -11 -172 l-11 -63 -99 0 c-126 0 -127 1 -103 146 l17
104 97 0 c75 0 100 -4 110 -15z m540 -2508 c-89 -60 -292 -174 -412 -232 -452
-217 -915 -333 -1403 -354 -527 -22 -1002 55 -1485 241 -137 53 -380 170 -500
241 l-95 57 110 1 c81 0 3152 56 3750 68 l70 1 -35 -23z"/>
<path d="M1901 4123 c-63 -357 -116 -656 -119 -667 -5 -17 2 -18 104 -14 90 3
116 7 149 26 79 45 77 38 181 626 52 295 94 551 94 569 0 77 -55 107 -197 107
l-98 0 -114 -647z"/>
<path d="M3390 4138 c-58 -171 -106 -317 -108 -325 -3 -10 18 -13 101 -13
l104 0 6 322 c4 176 6 322 5 324 -2 1 -50 -137 -108 -308z"/>
<path d="M4740 4138 c-58 -171 -106 -317 -108 -325 -3 -10 18 -13 101 -13
l104 0 6 322 c4 176 6 322 5 324 -2 1 -50 -137 -108 -308z"/>
</g>
</svg>
